<?xml version="1.0" encoding="UTF-8" standalone="no"?>
<svg
   xmlns:dc="http://purl.org/dc/elements/1.1/"
   xmlns:cc="http://creativecommons.org/ns#"
   xmlns:rdf="http://www.w3.org/1999/02/22-rdf-syntax-ns#"
   xmlns:svg="http://www.w3.org/2000/svg"
   xmlns="http://www.w3.org/2000/svg"
   xmlns:sodipodi="http://sodipodi.sourceforge.net/DTD/sodipodi-0.dtd"
   xmlns:inkscape="http://www.inkscape.org/namespaces/inkscape"
   sodipodi:docname="Folner.svg"
   inkscape:version="1.0beta1 (32d4812, 2019-09-19)"
   id="svg8"
   version="1.1"
   viewBox="0 0 61.689919 30.650206"
   height="30.650206mm"
   width="61.689919mm">
  <defs
     id="defs2" />
  <sodipodi:namedview
     inkscape:window-maximized="0"
     inkscape:window-y="0"
     inkscape:window-x="0"
     inkscape:window-height="1200"
     inkscape:window-width="1920"
     showgrid="false"
     inkscape:document-rotation="0"
     inkscape:current-layer="layer1"
     inkscape:document-units="mm"
     inkscape:cy="-60.193974"
     inkscape:cx="10.259924"
     inkscape:zoom="2.5115465"
     inkscape:pageshadow="2"
     inkscape:pageopacity="0.0"
     borderopacity="1.0"
     bordercolor="#666666"
     pagecolor="#ffffff"
     id="base" />
  <metadata
     id="metadata5">
    <rdf:RDF>
      <cc:Work
         rdf:about="">
        <dc:format>image/svg+xml</dc:format>
        <dc:type
           rdf:resource="http://purl.org/dc/dcmitype/StillImage" />
        <dc:title></dc:title>
      </cc:Work>
    </rdf:RDF>
  </metadata>
  <g
     transform="translate(-47.25127,-79.162294)"
     id="layer1"
     inkscape:groupmode="layer"
     inkscape:label="Layer 1">
    <path
       inkscape:connector-curvature="0"
       d="m 47.25127,79.455923 v 30.062937 0.29364 h 0.356838 58.413532 0.35683 V 109.51886 79.455923 79.162294 H 106.02164 47.608108 47.25127 Z"
       style="fill:none;fill-rule:evenodd;stroke:#000000;stroke-width:0.162063;stroke-miterlimit:4;stroke-dasharray:0.972378, 0.324126;stroke-dashoffset:0;stroke-opacity:1"
       id="rect14" />
    <text
       id="text869"
       y="83.613731"
       x="102.22704"
       style="font-style:normal;font-weight:normal;font-size:6.63244px;line-height:1.25;font-family:sans-serif;fill:#000000;fill-opacity:1;stroke:none;stroke-width:0.165811"
       xml:space="preserve"><tspan
         style="stroke-width:0.165811"
         y="83.613731"
         x="102.22704"
         id="tspan867"
         sodipodi:role="line">$G$</tspan></text>
    <text
       xml:space="preserve"
       style="font-style:normal;font-weight:normal;font-size:4.70737px;line-height:1.25;font-family:sans-serif;fill:#000000;fill-opacity:1;stroke:none;stroke-width:0.117684"
       x="85.075546"
       y="89.908913"
       id="text869-8"><tspan
         sodipodi:role="line"
         id="tspan867-4"
         x="85.075546"
         y="89.908913"
         style="stroke-width:0.117684">$gF_n$</tspan></text>
    <path
       inkscape:connector-curvature="0"
       transform="scale(0.26458333)"
       d="m 299.48828,318.11133 c -3.3691,0.0115 -6.90772,0.96319 -10.4668,2.50586 7.03549,0.55941 13.21209,5.43208 17.10938,17.51367 9.60471,29.7746 1.49719,55.94898 -15.84961,63.875 25.1466,0.35134 39.38749,-30.35523 27.78711,-66.31641 -4.16664,-12.9166 -10.93852,-17.60416 -18.58008,-17.57812 z m -9.20703,83.89453 c -3.75646,-0.0525 -7.75367,-0.79146 -11.94727,-2.31641 -32.26651,-11.73328 -38.13339,-32.79851 -23.46679,-50.39843 5.42388,-6.59663 19.954,-22.51878 34.15429,-28.67383 -17.03407,-1.35443 -39.10722,22.62285 -46.08984,31.11523 -14.6666,17.59992 -8.79971,38.66516 23.4668,50.39844 9.02311,3.28113 17.14876,2.95189 23.88281,-0.125 z"
       style="fill:#999999;fill-opacity:1;stroke:none;stroke-width:0.999999px;stroke-linecap:butt;stroke-linejoin:miter;stroke-opacity:1"
       id="path927" />
    <text
       id="text869-8-8"
       y="87.927628"
       x="63.665638"
       style="font-style:normal;font-weight:normal;font-size:4.70736px;line-height:1.25;font-family:sans-serif;fill:#000000;fill-opacity:1;stroke:none;stroke-width:0.117684"
       xml:space="preserve"><tspan
         style="stroke-width:0.117684"
         y="87.927628"
         x="63.665638"
         id="tspan867-4-7"
         sodipodi:role="line">$F_n$</tspan></text>
    <path
       style="fill:none;stroke:#000000;stroke-width:0.265;stroke-linecap:butt;stroke-linejoin:miter;stroke-miterlimit:4;stroke-dasharray:0.53, 0.265;stroke-dashoffset:0;stroke-opacity:1"
       d="M 67.433764,92.416365 C 70.044304,89.241381 80.627587,77.881994 84.155345,88.818051 87.683106,99.754111 82.1798,108.85573 73.642622,105.7513 65.105441,102.64687 63.553226,97.073011 67.433764,92.416365 Z"
       id="path884"
       inkscape:connector-curvature="0" />
    <path
       inkscape:connector-curvature="0"
       id="path882"
       d="M 64.275793,93.062314 C 66.886333,89.88733 77.469616,78.527943 80.997374,89.464 84.525135,100.40006 79.021829,109.50168 70.484651,106.39725 61.94747,103.29282 60.395255,97.71896 64.275793,93.062314 Z"
       style="fill:none;stroke:#000000;stroke-width:0.264583px;stroke-linecap:butt;stroke-linejoin:miter;stroke-opacity:1" />
  </g>
</svg>
